<mxfile host="65bd71144e">
    <diagram id="vCsVL9eWq_3BeJnZIuh4" name="注释">
        <mxGraphModel dx="981" dy="787" grid="0" gridSize="10" guides="1" tooltips="1" connect="1" arrows="1" fold="1" page="0" pageScale="1" pageWidth="827" pageHeight="1169" math="0" shadow="0">
            <root>
                <mxCell id="0"/>
                <mxCell id="1" parent="0"/>
                <mxCell id="4" value="/" style="edgeStyle=none;html=1;entryX=0;entryY=0.5;entryDx=0;entryDy=0;" parent="1" source="2" target="3" edge="1">
                    <mxGeometry relative="1" as="geometry"/>
                </mxCell>
                <mxCell id="2" value="start" style="text;html=1;align=center;verticalAlign=middle;resizable=0;points=[];autosize=1;strokeColor=none;fillColor=none;" parent="1" vertex="1">
                    <mxGeometry x="158" y="302" width="41" height="26" as="geometry"/>
                </mxCell>
                <mxCell id="6" value="/" style="edgeStyle=none;html=1;" parent="1" source="3" target="5" edge="1">
                    <mxGeometry relative="1" as="geometry"/>
                </mxCell>
                <mxCell id="14" value="*" style="edgeStyle=none;html=1;entryX=0;entryY=0;entryDx=0;entryDy=0;" parent="1" source="3" target="13" edge="1">
                    <mxGeometry relative="1" as="geometry"/>
                </mxCell>
                <mxCell id="3" value="0" style="ellipse;whiteSpace=wrap;html=1;aspect=fixed;" parent="1" vertex="1">
                    <mxGeometry x="277" y="291.5" width="47" height="47" as="geometry"/>
                </mxCell>
                <mxCell id="11" value="\n" style="edgeStyle=none;html=1;" parent="1" source="5" target="10" edge="1">
                    <mxGeometry relative="1" as="geometry"/>
                </mxCell>
                <mxCell id="5" value="1" style="ellipse;whiteSpace=wrap;html=1;aspect=fixed;" parent="1" vertex="1">
                    <mxGeometry x="394" y="228" width="47" height="47" as="geometry"/>
                </mxCell>
                <mxCell id="8" value="!=\n" style="endArrow=classic;html=1;entryX=0;entryY=0;entryDx=0;entryDy=0;exitX=1;exitY=0;exitDx=0;exitDy=0;" parent="1" source="5" target="5" edge="1">
                    <mxGeometry width="50" height="50" relative="1" as="geometry">
                        <mxPoint x="418" y="228" as="sourcePoint"/>
                        <mxPoint x="454" y="160" as="targetPoint"/>
                        <Array as="points">
                            <mxPoint x="392" y="198"/>
                        </Array>
                    </mxGeometry>
                </mxCell>
                <mxCell id="10" value="4" style="ellipse;whiteSpace=wrap;html=1;aspect=fixed;" parent="1" vertex="1">
                    <mxGeometry x="628" y="228" width="47" height="47" as="geometry"/>
                </mxCell>
                <mxCell id="12" value="5" style="ellipse;whiteSpace=wrap;html=1;aspect=fixed;" parent="1" vertex="1">
                    <mxGeometry x="630.5" y="393.5" width="42" height="42" as="geometry"/>
                </mxCell>
                <mxCell id="16" value="*" style="edgeStyle=none;html=1;" parent="1" source="13" target="15" edge="1">
                    <mxGeometry relative="1" as="geometry"/>
                </mxCell>
                <mxCell id="13" value="2" style="ellipse;whiteSpace=wrap;html=1;aspect=fixed;" parent="1" vertex="1">
                    <mxGeometry x="371" y="391" width="47" height="47" as="geometry"/>
                </mxCell>
                <mxCell id="17" value="/" style="edgeStyle=none;html=1;entryX=0;entryY=0.5;entryDx=0;entryDy=0;" parent="1" source="15" target="12" edge="1">
                    <mxGeometry relative="1" as="geometry"/>
                </mxCell>
                <mxCell id="15" value="3" style="ellipse;whiteSpace=wrap;html=1;aspect=fixed;" parent="1" vertex="1">
                    <mxGeometry x="521" y="391" width="47" height="47" as="geometry"/>
                </mxCell>
                <mxCell id="18" value="!=*" style="endArrow=classic;html=1;exitX=1;exitY=0;exitDx=0;exitDy=0;entryX=0.259;entryY=0.01;entryDx=0;entryDy=0;entryPerimeter=0;" parent="1" source="13" target="13" edge="1">
                    <mxGeometry width="50" height="50" relative="1" as="geometry">
                        <mxPoint x="406" y="526" as="sourcePoint"/>
                        <mxPoint x="376" y="364" as="targetPoint"/>
                        <Array as="points">
                            <mxPoint x="397" y="352"/>
                        </Array>
                    </mxGeometry>
                </mxCell>
            </root>
        </mxGraphModel>
    </diagram>
    <diagram id="m0Vh7LvADacsKydZCWAt" name="Number">
        <mxGraphModel dx="1386" dy="787" grid="0" gridSize="10" guides="1" tooltips="1" connect="1" arrows="1" fold="1" page="0" pageScale="1" pageWidth="827" pageHeight="1169" math="0" shadow="0">
            <root>
                <mxCell id="0"/>
                <mxCell id="1" parent="0"/>
                <mxCell id="Aa6bVFlEIJa3DRNi097n-1" value="" style="edgeStyle=none;html=1;entryX=0;entryY=0.5;entryDx=0;entryDy=0;" parent="1" source="Aa6bVFlEIJa3DRNi097n-2" target="Aa6bVFlEIJa3DRNi097n-3" edge="1">
                    <mxGeometry relative="1" as="geometry"/>
                </mxCell>
                <mxCell id="Aa6bVFlEIJa3DRNi097n-2" value="start" style="text;html=1;align=center;verticalAlign=middle;resizable=0;points=[];autosize=1;strokeColor=none;fillColor=none;" parent="1" vertex="1">
                    <mxGeometry x="158" y="302" width="41" height="26" as="geometry"/>
                </mxCell>
                <mxCell id="zATQ-SAt9j0jazqRzukw-2" value="ε" style="edgeStyle=none;html=1;" edge="1" parent="1" source="Aa6bVFlEIJa3DRNi097n-3" target="zATQ-SAt9j0jazqRzukw-1">
                    <mxGeometry relative="1" as="geometry"/>
                </mxCell>
                <mxCell id="zATQ-SAt9j0jazqRzukw-3" value="-" style="edgeStyle=none;html=1;entryX=0;entryY=1;entryDx=0;entryDy=0;exitX=1;exitY=1;exitDx=0;exitDy=0;" edge="1" parent="1" source="Aa6bVFlEIJa3DRNi097n-3" target="zATQ-SAt9j0jazqRzukw-1">
                    <mxGeometry relative="1" as="geometry">
                        <Array as="points">
                            <mxPoint x="361" y="360"/>
                        </Array>
                    </mxGeometry>
                </mxCell>
                <mxCell id="Aa6bVFlEIJa3DRNi097n-3" value="0" style="ellipse;whiteSpace=wrap;html=1;aspect=fixed;" parent="1" vertex="1">
                    <mxGeometry x="277" y="291.5" width="47" height="47" as="geometry"/>
                </mxCell>
                <mxCell id="Aa6bVFlEIJa3DRNi097n-4" value="333&lt;br&gt;1e5&lt;br&gt;1e-5&lt;br&gt;1.2" style="text;html=1;align=center;verticalAlign=middle;resizable=0;points=[];autosize=1;strokeColor=none;fillColor=none;" parent="1" vertex="1">
                    <mxGeometry x="320" y="55" width="42" height="70" as="geometry"/>
                </mxCell>
                <mxCell id="zATQ-SAt9j0jazqRzukw-5" value="0" style="edgeStyle=none;html=1;entryX=0;entryY=0.5;entryDx=0;entryDy=0;" edge="1" parent="1" source="zATQ-SAt9j0jazqRzukw-1" target="zATQ-SAt9j0jazqRzukw-4">
                    <mxGeometry relative="1" as="geometry"/>
                </mxCell>
                <mxCell id="zATQ-SAt9j0jazqRzukw-7" value="digit：1-9" style="edgeStyle=none;html=1;entryX=0;entryY=0;entryDx=0;entryDy=0;" edge="1" parent="1" source="zATQ-SAt9j0jazqRzukw-1" target="zATQ-SAt9j0jazqRzukw-6">
                    <mxGeometry relative="1" as="geometry"/>
                </mxCell>
                <mxCell id="zATQ-SAt9j0jazqRzukw-1" value="1" style="ellipse;whiteSpace=wrap;html=1;aspect=fixed;" vertex="1" parent="1">
                    <mxGeometry x="399" y="291.5" width="47" height="47" as="geometry"/>
                </mxCell>
                <mxCell id="zATQ-SAt9j0jazqRzukw-11" value="." style="edgeStyle=none;html=1;" edge="1" parent="1" source="zATQ-SAt9j0jazqRzukw-4" target="zATQ-SAt9j0jazqRzukw-10">
                    <mxGeometry relative="1" as="geometry"/>
                </mxCell>
                <mxCell id="zATQ-SAt9j0jazqRzukw-15" value="ε" style="edgeStyle=none;html=1;" edge="1" parent="1" source="zATQ-SAt9j0jazqRzukw-4" target="zATQ-SAt9j0jazqRzukw-14">
                    <mxGeometry relative="1" as="geometry"/>
                </mxCell>
                <mxCell id="zATQ-SAt9j0jazqRzukw-4" value="2" style="ellipse;whiteSpace=wrap;html=1;aspect=fixed;" vertex="1" parent="1">
                    <mxGeometry x="573" y="291.5" width="47" height="47" as="geometry"/>
                </mxCell>
                <mxCell id="zATQ-SAt9j0jazqRzukw-9" value="ε" style="edgeStyle=none;html=1;" edge="1" parent="1" source="zATQ-SAt9j0jazqRzukw-6" target="zATQ-SAt9j0jazqRzukw-4">
                    <mxGeometry relative="1" as="geometry"/>
                </mxCell>
                <mxCell id="zATQ-SAt9j0jazqRzukw-6" value="3" style="ellipse;whiteSpace=wrap;html=1;aspect=fixed;" vertex="1" parent="1">
                    <mxGeometry x="487" y="389" width="47" height="47" as="geometry"/>
                </mxCell>
                <mxCell id="zATQ-SAt9j0jazqRzukw-8" value="digit" style="endArrow=classic;html=1;exitX=0;exitY=1;exitDx=0;exitDy=0;entryX=1;entryY=1;entryDx=0;entryDy=0;" edge="1" parent="1" source="zATQ-SAt9j0jazqRzukw-6" target="zATQ-SAt9j0jazqRzukw-6">
                    <mxGeometry width="50" height="50" relative="1" as="geometry">
                        <mxPoint x="500" y="539" as="sourcePoint"/>
                        <mxPoint x="550" y="489" as="targetPoint"/>
                        <Array as="points">
                            <mxPoint x="503" y="467"/>
                        </Array>
                    </mxGeometry>
                </mxCell>
                <mxCell id="zATQ-SAt9j0jazqRzukw-18" value="digit" style="edgeStyle=none;html=1;entryX=0;entryY=0.5;entryDx=0;entryDy=0;" edge="1" parent="1" source="zATQ-SAt9j0jazqRzukw-10" target="zATQ-SAt9j0jazqRzukw-16">
                    <mxGeometry relative="1" as="geometry"/>
                </mxCell>
                <mxCell id="zATQ-SAt9j0jazqRzukw-10" value="4" style="ellipse;whiteSpace=wrap;html=1;aspect=fixed;" vertex="1" parent="1">
                    <mxGeometry x="698" y="396" width="47" height="47" as="geometry"/>
                </mxCell>
                <mxCell id="zATQ-SAt9j0jazqRzukw-13" value="digit" style="endArrow=classic;html=1;exitX=0;exitY=1;exitDx=0;exitDy=0;entryX=1;entryY=1;entryDx=0;entryDy=0;" edge="1" parent="1" source="zATQ-SAt9j0jazqRzukw-16" target="zATQ-SAt9j0jazqRzukw-16">
                    <mxGeometry width="50" height="50" relative="1" as="geometry">
                        <mxPoint x="706" y="524" as="sourcePoint"/>
                        <mxPoint x="756" y="474" as="targetPoint"/>
                        <Array as="points">
                            <mxPoint x="857" y="476"/>
                        </Array>
                    </mxGeometry>
                </mxCell>
                <mxCell id="zATQ-SAt9j0jazqRzukw-21" value="e|E" style="edgeStyle=none;html=1;" edge="1" parent="1" source="zATQ-SAt9j0jazqRzukw-14" target="zATQ-SAt9j0jazqRzukw-20">
                    <mxGeometry relative="1" as="geometry"/>
                </mxCell>
                <mxCell id="zATQ-SAt9j0jazqRzukw-34" value="ε" style="edgeStyle=none;html=1;entryX=0;entryY=0.5;entryDx=0;entryDy=0;" edge="1" parent="1" source="zATQ-SAt9j0jazqRzukw-14" target="zATQ-SAt9j0jazqRzukw-33">
                    <mxGeometry relative="1" as="geometry"/>
                </mxCell>
                <mxCell id="zATQ-SAt9j0jazqRzukw-14" value="6" style="ellipse;whiteSpace=wrap;html=1;aspect=fixed;" vertex="1" parent="1">
                    <mxGeometry x="913" y="291.5" width="47" height="47" as="geometry"/>
                </mxCell>
                <mxCell id="zATQ-SAt9j0jazqRzukw-19" value="ε" style="edgeStyle=none;html=1;" edge="1" parent="1" source="zATQ-SAt9j0jazqRzukw-16" target="zATQ-SAt9j0jazqRzukw-14">
                    <mxGeometry relative="1" as="geometry"/>
                </mxCell>
                <mxCell id="zATQ-SAt9j0jazqRzukw-16" value="5" style="ellipse;whiteSpace=wrap;html=1;aspect=fixed;" vertex="1" parent="1">
                    <mxGeometry x="841" y="396" width="47" height="47" as="geometry"/>
                </mxCell>
                <mxCell id="zATQ-SAt9j0jazqRzukw-25" value="+|-" style="edgeStyle=none;html=1;entryX=0;entryY=0.5;entryDx=0;entryDy=0;" edge="1" parent="1" source="zATQ-SAt9j0jazqRzukw-20" target="zATQ-SAt9j0jazqRzukw-23">
                    <mxGeometry relative="1" as="geometry"/>
                </mxCell>
                <mxCell id="zATQ-SAt9j0jazqRzukw-26" value="ε" style="edgeStyle=none;html=1;entryX=0;entryY=1;entryDx=0;entryDy=0;" edge="1" parent="1" source="zATQ-SAt9j0jazqRzukw-20" target="zATQ-SAt9j0jazqRzukw-23">
                    <mxGeometry relative="1" as="geometry">
                        <Array as="points">
                            <mxPoint x="1203" y="462"/>
                        </Array>
                    </mxGeometry>
                </mxCell>
                <mxCell id="zATQ-SAt9j0jazqRzukw-20" value="7" style="ellipse;whiteSpace=wrap;html=1;aspect=fixed;" vertex="1" parent="1">
                    <mxGeometry x="1094" y="389" width="47" height="47" as="geometry"/>
                </mxCell>
                <mxCell id="zATQ-SAt9j0jazqRzukw-23" value="8" style="ellipse;whiteSpace=wrap;html=1;aspect=fixed;" vertex="1" parent="1">
                    <mxGeometry x="1270" y="389" width="47" height="47" as="geometry"/>
                </mxCell>
                <mxCell id="zATQ-SAt9j0jazqRzukw-29" value="digit" style="edgeStyle=none;html=1;" edge="1" parent="1" source="zATQ-SAt9j0jazqRzukw-23" target="zATQ-SAt9j0jazqRzukw-28">
                    <mxGeometry relative="1" as="geometry">
                        <mxPoint x="1336.0000000000186" y="412.5" as="sourcePoint"/>
                    </mxGeometry>
                </mxCell>
                <mxCell id="zATQ-SAt9j0jazqRzukw-35" value="ε" style="edgeStyle=none;html=1;entryX=0;entryY=1;entryDx=0;entryDy=0;" edge="1" parent="1" source="zATQ-SAt9j0jazqRzukw-28" target="zATQ-SAt9j0jazqRzukw-33">
                    <mxGeometry relative="1" as="geometry">
                        <mxPoint x="1548.9999999999814" y="412.5" as="targetPoint"/>
                    </mxGeometry>
                </mxCell>
                <mxCell id="zATQ-SAt9j0jazqRzukw-28" value="9" style="ellipse;whiteSpace=wrap;html=1;aspect=fixed;" vertex="1" parent="1">
                    <mxGeometry x="1416" y="389" width="47" height="47" as="geometry"/>
                </mxCell>
                <mxCell id="zATQ-SAt9j0jazqRzukw-32" value="digit" style="endArrow=classic;html=1;exitX=0;exitY=1;exitDx=0;exitDy=0;entryX=1;entryY=1;entryDx=0;entryDy=0;" edge="1" parent="1" source="zATQ-SAt9j0jazqRzukw-28" target="zATQ-SAt9j0jazqRzukw-28">
                    <mxGeometry width="50" height="50" relative="1" as="geometry">
                        <mxPoint x="1541" y="559" as="sourcePoint"/>
                        <mxPoint x="1591" y="509" as="targetPoint"/>
                        <Array as="points">
                            <mxPoint x="1423" y="467"/>
                        </Array>
                    </mxGeometry>
                </mxCell>
                <mxCell id="zATQ-SAt9j0jazqRzukw-33" value="10" style="ellipse;whiteSpace=wrap;html=1;aspect=fixed;" vertex="1" parent="1">
                    <mxGeometry x="1572" y="291.5" width="47" height="47" as="geometry"/>
                </mxCell>
                <mxCell id="zATQ-SAt9j0jazqRzukw-36" value="转换表" style="text;html=1;align=center;verticalAlign=middle;resizable=0;points=[];autosize=1;strokeColor=#6F0000;fillColor=#a20025;fontStyle=1;fontColor=#ffffff;" vertex="1" parent="1">
                    <mxGeometry x="398" y="541" width="54" height="26" as="geometry"/>
                </mxCell>
                <mxCell id="zATQ-SAt9j0jazqRzukw-37" value="{1}" style="whiteSpace=wrap;html=1;aspect=fixed;" vertex="1" parent="1">
                    <mxGeometry x="287" y="646" width="50" height="50" as="geometry"/>
                </mxCell>
                <mxCell id="zATQ-SAt9j0jazqRzukw-38" value="状态" style="text;html=1;align=center;verticalAlign=middle;resizable=0;points=[];autosize=1;strokeColor=none;fillColor=none;" vertex="1" parent="1">
                    <mxGeometry x="213" y="658" width="42" height="26" as="geometry"/>
                </mxCell>
                <mxCell id="zATQ-SAt9j0jazqRzukw-39" value="字符" style="text;html=1;align=center;verticalAlign=middle;resizable=0;points=[];autosize=1;strokeColor=none;fillColor=none;" vertex="1" parent="1">
                    <mxGeometry x="416" y="594" width="42" height="26" as="geometry"/>
                </mxCell>
                <mxCell id="zATQ-SAt9j0jazqRzukw-40" value="{3}" style="whiteSpace=wrap;html=1;aspect=fixed;" vertex="1" parent="1">
                    <mxGeometry x="337" y="646" width="50" height="50" as="geometry"/>
                </mxCell>
                <mxCell id="zATQ-SAt9j0jazqRzukw-41" value="" style="whiteSpace=wrap;html=1;aspect=fixed;" vertex="1" parent="1">
                    <mxGeometry x="387" y="646" width="50" height="50" as="geometry"/>
                </mxCell>
                <mxCell id="zATQ-SAt9j0jazqRzukw-42" value="" style="whiteSpace=wrap;html=1;aspect=fixed;" vertex="1" parent="1">
                    <mxGeometry x="437" y="646" width="50" height="50" as="geometry"/>
                </mxCell>
                <mxCell id="zATQ-SAt9j0jazqRzukw-43" value="" style="whiteSpace=wrap;html=1;aspect=fixed;" vertex="1" parent="1">
                    <mxGeometry x="487" y="646" width="50" height="50" as="geometry"/>
                </mxCell>
                <mxCell id="zATQ-SAt9j0jazqRzukw-44" value="" style="endArrow=classic;html=1;" edge="1" parent="1">
                    <mxGeometry width="50" height="50" relative="1" as="geometry">
                        <mxPoint x="287" y="646" as="sourcePoint"/>
                        <mxPoint x="286" y="1226" as="targetPoint"/>
                    </mxGeometry>
                </mxCell>
                <mxCell id="zATQ-SAt9j0jazqRzukw-45" value="" style="endArrow=classic;html=1;" edge="1" parent="1">
                    <mxGeometry width="50" height="50" relative="1" as="geometry">
                        <mxPoint x="287" y="646" as="sourcePoint"/>
                        <mxPoint x="623" y="646" as="targetPoint"/>
                    </mxGeometry>
                </mxCell>
                <mxCell id="zATQ-SAt9j0jazqRzukw-46" value="" style="whiteSpace=wrap;html=1;aspect=fixed;" vertex="1" parent="1">
                    <mxGeometry x="287" y="696" width="50" height="50" as="geometry"/>
                </mxCell>
                <mxCell id="zATQ-SAt9j0jazqRzukw-47" value="{3,2}" style="whiteSpace=wrap;html=1;aspect=fixed;" vertex="1" parent="1">
                    <mxGeometry x="337" y="696" width="50" height="50" as="geometry"/>
                </mxCell>
                <mxCell id="zATQ-SAt9j0jazqRzukw-48" value="{2}" style="whiteSpace=wrap;html=1;aspect=fixed;" vertex="1" parent="1">
                    <mxGeometry x="387" y="696" width="50" height="50" as="geometry"/>
                </mxCell>
                <mxCell id="zATQ-SAt9j0jazqRzukw-49" value="" style="whiteSpace=wrap;html=1;aspect=fixed;" vertex="1" parent="1">
                    <mxGeometry x="437" y="696" width="50" height="50" as="geometry"/>
                </mxCell>
                <mxCell id="zATQ-SAt9j0jazqRzukw-50" value="" style="whiteSpace=wrap;html=1;aspect=fixed;" vertex="1" parent="1">
                    <mxGeometry x="487" y="696" width="50" height="50" as="geometry"/>
                </mxCell>
                <mxCell id="zATQ-SAt9j0jazqRzukw-51" value="0" style="text;html=1;align=center;verticalAlign=middle;resizable=0;points=[];autosize=1;strokeColor=none;fillColor=none;" vertex="1" parent="1">
                    <mxGeometry x="261" y="658" width="25" height="26" as="geometry"/>
                </mxCell>
                <mxCell id="zATQ-SAt9j0jazqRzukw-52" value="1" style="text;html=1;align=center;verticalAlign=middle;resizable=0;points=[];autosize=1;strokeColor=none;fillColor=none;" vertex="1" parent="1">
                    <mxGeometry x="261" y="708" width="25" height="26" as="geometry"/>
                </mxCell>
                <mxCell id="zATQ-SAt9j0jazqRzukw-53" value="" style="whiteSpace=wrap;html=1;aspect=fixed;" vertex="1" parent="1">
                    <mxGeometry x="287" y="746" width="50" height="50" as="geometry"/>
                </mxCell>
                <mxCell id="zATQ-SAt9j0jazqRzukw-54" value="" style="whiteSpace=wrap;html=1;aspect=fixed;" vertex="1" parent="1">
                    <mxGeometry x="337" y="746" width="50" height="50" as="geometry"/>
                </mxCell>
                <mxCell id="zATQ-SAt9j0jazqRzukw-55" value="" style="whiteSpace=wrap;html=1;aspect=fixed;" vertex="1" parent="1">
                    <mxGeometry x="387" y="746" width="50" height="50" as="geometry"/>
                </mxCell>
                <mxCell id="zATQ-SAt9j0jazqRzukw-56" value="{4,6,10}" style="whiteSpace=wrap;html=1;aspect=fixed;" vertex="1" parent="1">
                    <mxGeometry x="437" y="746" width="50" height="50" as="geometry"/>
                </mxCell>
                <mxCell id="zATQ-SAt9j0jazqRzukw-57" value="" style="whiteSpace=wrap;html=1;aspect=fixed;" vertex="1" parent="1">
                    <mxGeometry x="487" y="746" width="50" height="50" as="geometry"/>
                </mxCell>
                <mxCell id="zATQ-SAt9j0jazqRzukw-58" value="" style="whiteSpace=wrap;html=1;aspect=fixed;" vertex="1" parent="1">
                    <mxGeometry x="287" y="796" width="50" height="50" as="geometry"/>
                </mxCell>
                <mxCell id="zATQ-SAt9j0jazqRzukw-59" value="{3,2,6,10}" style="whiteSpace=wrap;html=1;aspect=fixed;" vertex="1" parent="1">
                    <mxGeometry x="337" y="796" width="50" height="50" as="geometry"/>
                </mxCell>
                <mxCell id="zATQ-SAt9j0jazqRzukw-60" value="{3,2,6,10}" style="whiteSpace=wrap;html=1;aspect=fixed;" vertex="1" parent="1">
                    <mxGeometry x="387" y="796" width="50" height="50" as="geometry"/>
                </mxCell>
                <mxCell id="zATQ-SAt9j0jazqRzukw-61" value="" style="whiteSpace=wrap;html=1;aspect=fixed;" vertex="1" parent="1">
                    <mxGeometry x="437" y="796" width="50" height="50" as="geometry"/>
                </mxCell>
                <mxCell id="zATQ-SAt9j0jazqRzukw-62" value="" style="whiteSpace=wrap;html=1;aspect=fixed;" vertex="1" parent="1">
                    <mxGeometry x="487" y="796" width="50" height="50" as="geometry"/>
                </mxCell>
                <mxCell id="zATQ-SAt9j0jazqRzukw-63" value="3" style="text;html=1;align=center;verticalAlign=middle;resizable=0;points=[];autosize=1;strokeColor=none;fillColor=none;" vertex="1" parent="1">
                    <mxGeometry x="261" y="808" width="25" height="26" as="geometry"/>
                </mxCell>
                <mxCell id="zATQ-SAt9j0jazqRzukw-64" value="2" style="text;html=1;align=center;verticalAlign=middle;resizable=0;points=[];autosize=1;strokeColor=none;fillColor=none;" vertex="1" parent="1">
                    <mxGeometry x="262" y="762" width="25" height="26" as="geometry"/>
                </mxCell>
                <mxCell id="zATQ-SAt9j0jazqRzukw-65" value="-" style="text;html=1;align=center;verticalAlign=middle;resizable=0;points=[];autosize=1;strokeColor=none;fillColor=none;" vertex="1" parent="1">
                    <mxGeometry x="302" y="620" width="22" height="26" as="geometry"/>
                </mxCell>
                <mxCell id="zATQ-SAt9j0jazqRzukw-66" value="1-9" style="text;html=1;align=center;verticalAlign=middle;resizable=0;points=[];autosize=1;strokeColor=none;fillColor=none;" vertex="1" parent="1">
                    <mxGeometry x="348" y="622" width="35" height="26" as="geometry"/>
                </mxCell>
                <mxCell id="zATQ-SAt9j0jazqRzukw-67" value="0" style="text;html=1;align=center;verticalAlign=middle;resizable=0;points=[];autosize=1;strokeColor=none;fillColor=none;" vertex="1" parent="1">
                    <mxGeometry x="402" y="622" width="25" height="26" as="geometry"/>
                </mxCell>
                <mxCell id="zATQ-SAt9j0jazqRzukw-68" value="." style="text;html=1;align=center;verticalAlign=middle;resizable=0;points=[];autosize=1;strokeColor=none;fillColor=none;" vertex="1" parent="1">
                    <mxGeometry x="452" y="619" width="21" height="26" as="geometry"/>
                </mxCell>
                <mxCell id="zATQ-SAt9j0jazqRzukw-69" value="e|e" style="text;html=1;align=center;verticalAlign=middle;resizable=0;points=[];autosize=1;strokeColor=none;fillColor=none;" vertex="1" parent="1">
                    <mxGeometry x="495" y="619" width="34" height="26" as="geometry"/>
                </mxCell>
                <mxCell id="zATQ-SAt9j0jazqRzukw-70" value="" style="whiteSpace=wrap;html=1;aspect=fixed;" vertex="1" parent="1">
                    <mxGeometry x="537" y="646" width="50" height="50" as="geometry"/>
                </mxCell>
                <mxCell id="zATQ-SAt9j0jazqRzukw-71" value="+" style="text;html=1;align=center;verticalAlign=middle;resizable=0;points=[];autosize=1;strokeColor=none;fillColor=none;" vertex="1" parent="1">
                    <mxGeometry x="548" y="620" width="25" height="26" as="geometry"/>
                </mxCell>
                <mxCell id="zATQ-SAt9j0jazqRzukw-72" value="" style="whiteSpace=wrap;html=1;aspect=fixed;" vertex="1" parent="1">
                    <mxGeometry x="537" y="696" width="50" height="50" as="geometry"/>
                </mxCell>
                <mxCell id="zATQ-SAt9j0jazqRzukw-73" value="" style="whiteSpace=wrap;html=1;aspect=fixed;" vertex="1" parent="1">
                    <mxGeometry x="537" y="746" width="50" height="50" as="geometry"/>
                </mxCell>
                <mxCell id="zATQ-SAt9j0jazqRzukw-74" value="" style="whiteSpace=wrap;html=1;aspect=fixed;" vertex="1" parent="1">
                    <mxGeometry x="537" y="796" width="50" height="50" as="geometry"/>
                </mxCell>
                <mxCell id="zATQ-SAt9j0jazqRzukw-75" value="" style="whiteSpace=wrap;html=1;aspect=fixed;" vertex="1" parent="1">
                    <mxGeometry x="287" y="846" width="50" height="50" as="geometry"/>
                </mxCell>
                <mxCell id="zATQ-SAt9j0jazqRzukw-76" value="{5,6,10}" style="whiteSpace=wrap;html=1;aspect=fixed;" vertex="1" parent="1">
                    <mxGeometry x="337" y="846" width="50" height="50" as="geometry"/>
                </mxCell>
                <mxCell id="zATQ-SAt9j0jazqRzukw-77" value="{5,6,10}" style="whiteSpace=wrap;html=1;aspect=fixed;" vertex="1" parent="1">
                    <mxGeometry x="387" y="846" width="50" height="50" as="geometry"/>
                </mxCell>
                <mxCell id="zATQ-SAt9j0jazqRzukw-78" value="" style="whiteSpace=wrap;html=1;aspect=fixed;" vertex="1" parent="1">
                    <mxGeometry x="437" y="846" width="50" height="50" as="geometry"/>
                </mxCell>
                <mxCell id="zATQ-SAt9j0jazqRzukw-79" value="" style="whiteSpace=wrap;html=1;aspect=fixed;" vertex="1" parent="1">
                    <mxGeometry x="487" y="846" width="50" height="50" as="geometry"/>
                </mxCell>
                <mxCell id="zATQ-SAt9j0jazqRzukw-81" value="" style="whiteSpace=wrap;html=1;aspect=fixed;" vertex="1" parent="1">
                    <mxGeometry x="287" y="896" width="50" height="50" as="geometry"/>
                </mxCell>
                <mxCell id="zATQ-SAt9j0jazqRzukw-82" value="{5,6,10}" style="whiteSpace=wrap;html=1;aspect=fixed;" vertex="1" parent="1">
                    <mxGeometry x="337" y="896" width="50" height="50" as="geometry"/>
                </mxCell>
                <mxCell id="zATQ-SAt9j0jazqRzukw-83" value="{5,6,10}" style="whiteSpace=wrap;html=1;aspect=fixed;" vertex="1" parent="1">
                    <mxGeometry x="387" y="896" width="50" height="50" as="geometry"/>
                </mxCell>
                <mxCell id="zATQ-SAt9j0jazqRzukw-84" value="" style="whiteSpace=wrap;html=1;aspect=fixed;" vertex="1" parent="1">
                    <mxGeometry x="437" y="896" width="50" height="50" as="geometry"/>
                </mxCell>
                <mxCell id="zATQ-SAt9j0jazqRzukw-85" value="" style="whiteSpace=wrap;html=1;aspect=fixed;" vertex="1" parent="1">
                    <mxGeometry x="487" y="896" width="50" height="50" as="geometry"/>
                </mxCell>
                <mxCell id="zATQ-SAt9j0jazqRzukw-86" value="" style="whiteSpace=wrap;html=1;aspect=fixed;" vertex="1" parent="1">
                    <mxGeometry x="287" y="946" width="50" height="50" as="geometry"/>
                </mxCell>
                <mxCell id="zATQ-SAt9j0jazqRzukw-87" value="" style="whiteSpace=wrap;html=1;aspect=fixed;" vertex="1" parent="1">
                    <mxGeometry x="337" y="946" width="50" height="50" as="geometry"/>
                </mxCell>
                <mxCell id="zATQ-SAt9j0jazqRzukw-88" value="" style="whiteSpace=wrap;html=1;aspect=fixed;" vertex="1" parent="1">
                    <mxGeometry x="387" y="946" width="50" height="50" as="geometry"/>
                </mxCell>
                <mxCell id="zATQ-SAt9j0jazqRzukw-89" value="" style="whiteSpace=wrap;html=1;aspect=fixed;" vertex="1" parent="1">
                    <mxGeometry x="437" y="946" width="50" height="50" as="geometry"/>
                </mxCell>
                <mxCell id="zATQ-SAt9j0jazqRzukw-90" value="{7,10}" style="whiteSpace=wrap;html=1;aspect=fixed;" vertex="1" parent="1">
                    <mxGeometry x="487" y="946" width="50" height="50" as="geometry"/>
                </mxCell>
                <mxCell id="zATQ-SAt9j0jazqRzukw-91" value="{8}" style="whiteSpace=wrap;html=1;aspect=fixed;" vertex="1" parent="1">
                    <mxGeometry x="287" y="996" width="50" height="50" as="geometry"/>
                </mxCell>
                <mxCell id="zATQ-SAt9j0jazqRzukw-92" value="" style="whiteSpace=wrap;html=1;aspect=fixed;" vertex="1" parent="1">
                    <mxGeometry x="337" y="996" width="50" height="50" as="geometry"/>
                </mxCell>
                <mxCell id="zATQ-SAt9j0jazqRzukw-93" value="" style="whiteSpace=wrap;html=1;aspect=fixed;" vertex="1" parent="1">
                    <mxGeometry x="387" y="996" width="50" height="50" as="geometry"/>
                </mxCell>
                <mxCell id="zATQ-SAt9j0jazqRzukw-94" value="" style="whiteSpace=wrap;html=1;aspect=fixed;" vertex="1" parent="1">
                    <mxGeometry x="437" y="996" width="50" height="50" as="geometry"/>
                </mxCell>
                <mxCell id="zATQ-SAt9j0jazqRzukw-95" value="" style="whiteSpace=wrap;html=1;aspect=fixed;" vertex="1" parent="1">
                    <mxGeometry x="487" y="996" width="50" height="50" as="geometry"/>
                </mxCell>
                <mxCell id="zATQ-SAt9j0jazqRzukw-96" value="" style="whiteSpace=wrap;html=1;aspect=fixed;" vertex="1" parent="1">
                    <mxGeometry x="537" y="846" width="50" height="50" as="geometry"/>
                </mxCell>
                <mxCell id="zATQ-SAt9j0jazqRzukw-97" value="" style="whiteSpace=wrap;html=1;aspect=fixed;" vertex="1" parent="1">
                    <mxGeometry x="537" y="896" width="50" height="50" as="geometry"/>
                </mxCell>
                <mxCell id="zATQ-SAt9j0jazqRzukw-98" value="" style="whiteSpace=wrap;html=1;aspect=fixed;" vertex="1" parent="1">
                    <mxGeometry x="537" y="946" width="50" height="50" as="geometry"/>
                </mxCell>
                <mxCell id="zATQ-SAt9j0jazqRzukw-99" value="{8}" style="whiteSpace=wrap;html=1;aspect=fixed;" vertex="1" parent="1">
                    <mxGeometry x="537" y="996" width="50" height="50" as="geometry"/>
                </mxCell>
                <mxCell id="zATQ-SAt9j0jazqRzukw-100" value="7" style="text;html=1;align=center;verticalAlign=middle;resizable=0;points=[];autosize=1;strokeColor=none;fillColor=none;" vertex="1" parent="1">
                    <mxGeometry x="260" y="1008" width="25" height="26" as="geometry"/>
                </mxCell>
                <mxCell id="zATQ-SAt9j0jazqRzukw-101" value="6" style="text;html=1;align=center;verticalAlign=middle;resizable=0;points=[];autosize=1;strokeColor=none;fillColor=none;" vertex="1" parent="1">
                    <mxGeometry x="261" y="962" width="25" height="26" as="geometry"/>
                </mxCell>
                <mxCell id="zATQ-SAt9j0jazqRzukw-102" value="5" style="text;html=1;align=center;verticalAlign=middle;resizable=0;points=[];autosize=1;strokeColor=none;fillColor=none;" vertex="1" parent="1">
                    <mxGeometry x="260" y="908" width="25" height="26" as="geometry"/>
                </mxCell>
                <mxCell id="zATQ-SAt9j0jazqRzukw-103" value="4" style="text;html=1;align=center;verticalAlign=middle;resizable=0;points=[];autosize=1;strokeColor=none;fillColor=none;" vertex="1" parent="1">
                    <mxGeometry x="260" y="858" width="25" height="26" as="geometry"/>
                </mxCell>
                <mxCell id="zATQ-SAt9j0jazqRzukw-117" value="" style="whiteSpace=wrap;html=1;aspect=fixed;" vertex="1" parent="1">
                    <mxGeometry x="287" y="1046" width="50" height="50" as="geometry"/>
                </mxCell>
                <mxCell id="zATQ-SAt9j0jazqRzukw-118" value="{9}" style="whiteSpace=wrap;html=1;aspect=fixed;" vertex="1" parent="1">
                    <mxGeometry x="337" y="1046" width="50" height="50" as="geometry"/>
                </mxCell>
                <mxCell id="zATQ-SAt9j0jazqRzukw-119" value="{9}" style="whiteSpace=wrap;html=1;aspect=fixed;" vertex="1" parent="1">
                    <mxGeometry x="387" y="1046" width="50" height="50" as="geometry"/>
                </mxCell>
                <mxCell id="zATQ-SAt9j0jazqRzukw-120" value="" style="whiteSpace=wrap;html=1;aspect=fixed;" vertex="1" parent="1">
                    <mxGeometry x="437" y="1046" width="50" height="50" as="geometry"/>
                </mxCell>
                <mxCell id="zATQ-SAt9j0jazqRzukw-121" value="" style="whiteSpace=wrap;html=1;aspect=fixed;" vertex="1" parent="1">
                    <mxGeometry x="487" y="1046" width="50" height="50" as="geometry"/>
                </mxCell>
                <mxCell id="zATQ-SAt9j0jazqRzukw-122" value="" style="whiteSpace=wrap;html=1;aspect=fixed;" vertex="1" parent="1">
                    <mxGeometry x="287" y="1096" width="50" height="50" as="geometry"/>
                </mxCell>
                <mxCell id="zATQ-SAt9j0jazqRzukw-123" value="{9,10}" style="whiteSpace=wrap;html=1;aspect=fixed;" vertex="1" parent="1">
                    <mxGeometry x="337" y="1096" width="50" height="50" as="geometry"/>
                </mxCell>
                <mxCell id="zATQ-SAt9j0jazqRzukw-124" value="{9,10}" style="whiteSpace=wrap;html=1;aspect=fixed;" vertex="1" parent="1">
                    <mxGeometry x="387" y="1096" width="50" height="50" as="geometry"/>
                </mxCell>
                <mxCell id="zATQ-SAt9j0jazqRzukw-125" value="" style="whiteSpace=wrap;html=1;aspect=fixed;" vertex="1" parent="1">
                    <mxGeometry x="437" y="1096" width="50" height="50" as="geometry"/>
                </mxCell>
                <mxCell id="zATQ-SAt9j0jazqRzukw-126" value="" style="whiteSpace=wrap;html=1;aspect=fixed;" vertex="1" parent="1">
                    <mxGeometry x="487" y="1096" width="50" height="50" as="geometry"/>
                </mxCell>
                <mxCell id="zATQ-SAt9j0jazqRzukw-127" value="" style="whiteSpace=wrap;html=1;aspect=fixed;" vertex="1" parent="1">
                    <mxGeometry x="537" y="1046" width="50" height="50" as="geometry"/>
                </mxCell>
                <mxCell id="zATQ-SAt9j0jazqRzukw-128" value="" style="whiteSpace=wrap;html=1;aspect=fixed;" vertex="1" parent="1">
                    <mxGeometry x="537" y="1096" width="50" height="50" as="geometry"/>
                </mxCell>
                <mxCell id="zATQ-SAt9j0jazqRzukw-129" value="9" style="text;html=1;align=center;verticalAlign=middle;resizable=0;points=[];autosize=1;strokeColor=none;fillColor=none;" vertex="1" parent="1">
                    <mxGeometry x="261" y="1108" width="25" height="26" as="geometry"/>
                </mxCell>
                <mxCell id="zATQ-SAt9j0jazqRzukw-130" value="8" style="text;html=1;align=center;verticalAlign=middle;resizable=0;points=[];autosize=1;strokeColor=none;fillColor=none;" vertex="1" parent="1">
                    <mxGeometry x="262" y="1062" width="25" height="26" as="geometry"/>
                </mxCell>
                <mxCell id="zATQ-SAt9j0jazqRzukw-131" value="" style="whiteSpace=wrap;html=1;aspect=fixed;" vertex="1" parent="1">
                    <mxGeometry x="286" y="1146" width="50" height="50" as="geometry"/>
                </mxCell>
                <mxCell id="zATQ-SAt9j0jazqRzukw-132" value="" style="whiteSpace=wrap;html=1;aspect=fixed;" vertex="1" parent="1">
                    <mxGeometry x="336" y="1146" width="50" height="50" as="geometry"/>
                </mxCell>
                <mxCell id="zATQ-SAt9j0jazqRzukw-133" value="" style="whiteSpace=wrap;html=1;aspect=fixed;" vertex="1" parent="1">
                    <mxGeometry x="386" y="1146" width="50" height="50" as="geometry"/>
                </mxCell>
                <mxCell id="zATQ-SAt9j0jazqRzukw-134" value="" style="whiteSpace=wrap;html=1;aspect=fixed;" vertex="1" parent="1">
                    <mxGeometry x="436" y="1146" width="50" height="50" as="geometry"/>
                </mxCell>
                <mxCell id="zATQ-SAt9j0jazqRzukw-135" value="" style="whiteSpace=wrap;html=1;aspect=fixed;" vertex="1" parent="1">
                    <mxGeometry x="486" y="1146" width="50" height="50" as="geometry"/>
                </mxCell>
                <mxCell id="zATQ-SAt9j0jazqRzukw-136" value="" style="whiteSpace=wrap;html=1;aspect=fixed;" vertex="1" parent="1">
                    <mxGeometry x="536" y="1146" width="50" height="50" as="geometry"/>
                </mxCell>
                <mxCell id="zATQ-SAt9j0jazqRzukw-137" value="10" style="text;html=1;align=center;verticalAlign=middle;resizable=0;points=[];autosize=1;strokeColor=none;fillColor=none;" vertex="1" parent="1">
                    <mxGeometry x="256" y="1158" width="31" height="26" as="geometry"/>
                </mxCell>
            </root>
        </mxGraphModel>
    </diagram>
</mxfile>
